<svg width="205" height="45" viewBox="0 0 205 45" fill="none" xmlns="http://www.w3.org/2000/svg">
<g clip-path="url(#clip0_1530_559)">
<path d="M203.672 33.9275V39.3037H199.437C194.918 39.1525 192.504 36.5537 192.504 31.6725V19.3937H189.547V14.6775H192.504V9.39746H198.753V14.6225H203.53V19.325H198.753V31.0125C198.753 32.5937 199.05 33.8587 201.335 33.8587L203.672 33.9275Z" fill="white"/>
<path d="M164.637 27.0383V26.6808C164.569 25.0993 164.795 23.5192 165.302 22.031C165.809 20.5428 166.587 19.1758 167.591 18.0083C168.595 16.8408 169.805 15.8958 171.153 15.2274C172.5 14.559 173.958 14.1804 175.444 14.1133C175.74 14.1133 176.05 14.1133 176.347 14.1133C182.248 14.1133 187.425 17.7708 187.425 26.4883V28.3445H171.028C171.196 32.3595 173.236 34.6283 176.67 34.6283C179.627 34.6283 181.008 33.2533 181.409 31.2458H187.309C186.586 36.4845 182.661 39.3995 176.451 39.3995C169.633 39.3445 164.637 34.752 164.637 27.0383ZM181.279 24.137C181.06 20.4795 179.33 18.7195 176.321 18.7195C173.313 18.7195 171.583 20.6995 171.157 24.137H181.279Z" fill="white"/>
<path d="M139.129 27.0383V26.6808C139.061 25.1016 139.287 23.5236 139.792 22.0371C140.297 20.5507 141.073 19.1848 142.074 18.0177C143.075 16.8505 144.282 15.905 145.627 15.235C146.972 14.5651 148.427 14.1839 149.91 14.1133C150.207 14.1133 150.517 14.1133 150.814 14.1133C156.714 14.1133 161.905 17.7708 161.905 26.4883V28.3445H145.52C145.688 32.3595 147.728 34.6283 151.162 34.6283C154.119 34.6283 155.501 33.2533 155.901 31.2458H161.801C161.065 36.4845 157.14 39.3995 150.93 39.3995C144.126 39.3445 139.129 34.752 139.129 27.0383ZM155.772 24.137C155.552 20.4795 153.822 18.7195 150.814 18.7195C147.805 18.7195 146.127 20.7545 145.649 24.1233L155.772 24.137Z" fill="white"/>
<path d="M103.32 14.6221H109.931L113.972 30.9296L118.401 14.6221H123.565L127.568 30.9296L131.829 14.6221H137.884L130.705 38.8496H124.508L120.634 23.6421L116.49 38.8496H110.215L103.32 14.6221Z" fill="white"/>
<path d="M82.3125 31.2323H88.213C88.4842 33.4186 89.5041 34.6698 92.2155 34.6698C94.6429 34.6698 95.7662 33.6936 95.7662 32.0298C95.7662 30.3661 94.475 29.6648 91.1697 29.1698C85.1143 28.1936 82.7773 26.3373 82.7773 21.6073C82.7773 16.5611 87.1155 14.0586 91.8153 14.0586C96.8636 14.0586 100.673 16.0111 101.215 21.5798H95.3917C95.3546 21.1493 95.2377 20.7309 95.0478 20.3488C94.8579 19.9667 94.5989 19.6284 94.2855 19.3536C93.9722 19.0787 93.6108 18.8726 93.2223 18.7474C92.8338 18.6221 92.4258 18.58 92.0219 18.6236H91.8282C89.7882 18.6236 88.6003 19.6411 88.6003 21.1261C88.6003 22.6111 89.6978 23.2573 93.029 23.7661C98.6841 24.6736 101.847 26.1998 101.847 31.3836C101.847 36.5673 98.271 39.3448 92.2801 39.3448C86.2892 39.3448 82.4803 36.4711 82.3125 31.2323Z" fill="white"/>
<path d="M57.2422 14.6225H63.4913V18.4588C64.1957 17.0507 65.2648 15.8876 66.5717 15.1076C67.8786 14.3276 69.3683 13.9636 70.8637 14.0588C75.2923 14.0588 78.5072 16.9325 78.5072 23.4913V38.905H72.3356V24.4538C72.3356 21.1675 71.1348 19.6 68.346 19.6C67.7565 19.5454 67.1627 19.6153 66.5987 19.8056C66.0347 19.996 65.5115 20.3032 65.0592 20.7094C64.607 21.1157 64.2345 21.6131 63.9632 22.1731C63.6919 22.7331 63.5272 23.3446 63.4784 23.9725C63.4461 24.2649 63.4461 24.5602 63.4784 24.8525V38.85H57.2422V14.6225Z" fill="white"/>
<path d="M45.1818 8.53059C45.1591 7.86706 45.3219 7.21129 45.6494 6.64631C45.9769 6.08133 46.4544 5.63255 47.0216 5.35678C47.5888 5.08101 48.22 4.99065 48.8354 5.09715C49.4508 5.20365 50.0227 5.50222 50.4787 5.95505C50.9346 6.40788 51.2542 6.99462 51.3969 7.64096C51.5395 8.28731 51.4989 8.96421 51.2801 9.58596C51.0614 10.2077 50.6743 10.7464 50.1679 11.1337C49.6615 11.521 49.0586 11.7396 48.4354 11.7618H48.3192C47.9325 11.7879 47.5447 11.7324 47.1782 11.5985C46.8116 11.4646 46.4735 11.255 46.1832 10.9816C45.8929 10.7082 45.6561 10.3765 45.4865 10.0054C45.3169 9.63436 45.2177 9.2313 45.1947 8.81934C45.184 8.72353 45.1796 8.62704 45.1818 8.53059ZM45.1818 14.6218H51.4954V38.8493H45.2076L45.1818 14.6218Z" fill="white"/>
<path d="M21.3828 5.74023H41.3438V11.6115H28.4324V20.3702H38.6583V26.0215H28.4195V38.8502H21.3828V5.74023Z" fill="white"/>
<path d="M9.34037 16.5748C9.34037 18.651 9.34037 21.181 6.6548 22.2123C9.40492 23.216 9.34037 25.3473 9.34037 27.5748V35.8248C9.34037 37.3923 9.93429 38.341 10.993 38.5748C11.2257 38.6584 11.4708 38.6956 11.7161 38.6848H14.2983V44.1848H10.0376C5.49277 44.1848 2.98796 41.4348 2.98796 36.3335V26.571C2.95573 26.0698 2.74821 25.5997 2.40639 25.2535C2.06457 24.9073 1.61328 24.7102 1.14163 24.701H0.03125V19.8748H1.14163C1.62269 19.868 2.08284 19.6643 2.42662 19.3058C2.7704 18.9474 2.97141 18.4618 2.98796 17.9498V8.04977C2.98796 3.03102 5.44112 0.322266 10.0376 0.322266H14.3371V5.73977H11.7548C11.5092 5.74052 11.2652 5.78228 11.0318 5.86352C9.97302 6.15227 9.3791 7.08727 9.3791 8.61352L9.34037 16.5748Z" fill="white"/>
</g>
<defs>
<clipPath id="clip0_1530_559">
<rect width="204" height="44" fill="white" transform="translate(0.03125 0.322266)"/>
</clipPath>
</defs>
</svg>
