<svg width="132" height="26" viewBox="0 0 132 26" fill="none" xmlns="http://www.w3.org/2000/svg">
<g clip-path="url(#clip0_1530_725)">
<path d="M131.765 19.8573V23.0342H129.024C126.1 22.9448 124.538 21.4092 124.538 18.5248V11.2692H122.625V8.4823H124.538V5.3623H128.582V8.4498H131.673V11.2286H128.582V18.1348C128.582 19.0692 128.774 19.8167 130.253 19.8167L131.765 19.8573Z" fill="#111111"/>
<path d="M106.508 15.7869V15.5757C106.464 14.6412 106.61 13.7075 106.938 12.8281C107.266 11.9487 107.769 11.1409 108.419 10.451C109.069 9.76113 109.852 9.2027 110.724 8.80774C111.596 8.41279 112.539 8.18907 113.5 8.14941C113.692 8.14941 113.893 8.14941 114.085 8.14941C117.903 8.14941 121.253 10.3107 121.253 15.4619V16.5588H110.643C110.752 18.9313 112.072 20.2719 114.294 20.2719C116.207 20.2719 117.101 19.4594 117.36 18.2732H121.178C120.71 21.3688 118.17 23.0913 114.152 23.0913C109.741 23.0588 106.508 20.345 106.508 15.7869ZM117.276 14.0725C117.134 11.9113 116.015 10.8713 114.068 10.8713C112.122 10.8713 111.002 12.0413 110.727 14.0725H117.276Z" fill="#111111"/>
<path d="M89.9998 15.7869V15.5757C89.956 14.6425 90.1018 13.7101 90.4287 12.8317C90.7557 11.9533 91.2574 11.1462 91.9053 10.4566C92.5532 9.76688 93.3344 9.20814 94.2044 8.81226C95.0745 8.41639 96.0162 8.19115 96.9757 8.14941C97.1679 8.14941 97.3684 8.14941 97.5605 8.14941C101.379 8.14941 104.737 10.3107 104.737 15.4619V16.5588H94.1352C94.2438 18.9313 95.5638 20.2719 97.7861 20.2719C99.6993 20.2719 100.593 19.4594 100.852 18.2732H104.67C104.194 21.3688 101.654 23.0913 97.6357 23.0913C93.2329 23.0588 89.9998 20.345 89.9998 15.7869ZM100.769 14.0725C100.627 11.9113 99.5071 10.8713 97.5605 10.8713C95.614 10.8713 94.5279 12.0738 94.2188 14.0644L100.769 14.0725Z" fill="#111111"/>
<path d="M66.8359 8.4502H71.1134L73.7283 18.0864L76.5939 8.4502H79.9357L82.5256 18.0864L85.2825 8.4502H89.2007L84.5557 22.7664H80.5456L78.0392 13.7802L75.3575 22.7664H71.2972L66.8359 8.4502Z" fill="#111111"/>
<path d="M53.2422 18.2653H57.0602C57.2356 19.5572 57.8956 20.2966 59.65 20.2966C61.2207 20.2966 61.9475 19.7197 61.9475 18.7366C61.9475 17.7534 61.1121 17.3391 58.9733 17.0466C55.0551 16.4697 53.543 15.3728 53.543 12.5778C53.543 9.59594 56.35 8.11719 59.3911 8.11719C62.6576 8.11719 65.1222 9.27094 65.4731 12.5616H61.7052C61.6812 12.3072 61.6055 12.0599 61.4827 11.8341C61.3598 11.6083 61.1922 11.4085 60.9894 11.246C60.7867 11.0836 60.5529 10.9619 60.3015 10.8878C60.0501 10.8138 59.7861 10.7889 59.5247 10.8147H59.3994C58.0794 10.8147 57.3108 11.4159 57.3108 12.2934C57.3108 13.1709 58.0209 13.5528 60.1764 13.8534C63.8356 14.3897 65.8824 15.2916 65.8824 18.3547C65.8824 21.4178 63.5683 23.0591 59.6918 23.0591C55.8154 23.0591 53.3508 21.3609 53.2422 18.2653Z" fill="#111111"/>
<path d="M37.0156 8.4503H41.0592V10.7172C41.5149 9.88512 42.2067 9.19781 43.0524 8.73692C43.898 8.27602 44.8619 8.06092 45.8295 8.11717C48.6951 8.11717 50.7754 9.8153 50.7754 13.6909V22.799H46.782V14.2597C46.782 12.3178 46.005 11.3915 44.2004 11.3915C43.819 11.3593 43.4348 11.4005 43.0698 11.513C42.7049 11.6255 42.3664 11.807 42.0737 12.0471C41.7811 12.2872 41.5401 12.5811 41.3645 12.912C41.189 13.2429 41.0824 13.6042 41.0508 13.9753C41.0299 14.148 41.0299 14.3226 41.0508 14.4953V22.7666H37.0156V8.4503Z" fill="#111111"/>
<path d="M29.2123 4.85042C29.1976 4.45833 29.3029 4.07083 29.5148 3.73698C29.7268 3.40313 30.0358 3.13794 30.4028 2.97498C30.7697 2.81203 31.1782 2.75864 31.5764 2.82157C31.9746 2.8845 32.3446 3.06093 32.6397 3.32851C32.9347 3.59609 33.1415 3.9428 33.2338 4.32473C33.3261 4.70666 33.2998 5.10665 33.1583 5.47405C33.0167 5.84144 32.7663 6.15973 32.4386 6.38861C32.1109 6.61749 31.7208 6.74667 31.3176 6.75979H31.2424C30.9922 6.77519 30.7413 6.7424 30.5041 6.66328C30.2669 6.58415 30.0481 6.46027 29.8603 6.29873C29.6724 6.13718 29.5192 5.94116 29.4095 5.7219C29.2997 5.50265 29.2355 5.26447 29.2206 5.02104C29.2137 4.96443 29.2109 4.90741 29.2123 4.85042ZM29.2123 8.44979H33.2976V22.766H29.229L29.2123 8.44979Z" fill="#111111"/>
<path d="M13.8203 3.20117H26.7363V6.67055H18.3818V11.8462H24.9985V15.1855H18.3735V22.7662H13.8203V3.20117Z" fill="#111111"/>
<path d="M6.02354 9.60375C6.02354 10.8306 6.02354 12.3256 4.28582 12.935C6.06532 13.5281 6.02354 14.7875 6.02354 16.1037V20.9787C6.02354 21.905 6.40785 22.4656 7.09291 22.6037C7.24344 22.6531 7.40203 22.6752 7.56076 22.6687H9.23165V25.9188H6.47468C3.53392 25.9188 1.91316 24.2938 1.91316 21.2794V15.5106C1.89231 15.2145 1.75804 14.9367 1.53686 14.7321C1.31568 14.5275 1.02367 14.411 0.718481 14.4056H0V11.5537H0.718481C1.02976 11.5498 1.3275 11.4294 1.54994 11.2176C1.77239 11.0058 1.90246 10.7188 1.91316 10.4162V4.56625C1.91316 1.60063 3.50051 0 6.47468 0H9.25671V3.20125H7.58582C7.4269 3.2017 7.26904 3.22637 7.11797 3.27438C6.43291 3.445 6.04861 3.9975 6.04861 4.89938L6.02354 9.60375Z" fill="#111111"/>
</g>
<defs>
<clipPath id="clip0_1530_725">
<rect width="132" height="26" fill="white"/>
</clipPath>
</defs>
</svg>
